<?xml version="1.0" standalone="no"?>
<!DOCTYPE svg PUBLIC "-//W3C//DTD SVG 20010904//EN"
 "http://www.w3.org/TR/2001/REC-SVG-20010904/DTD/svg10.dtd">
<svg version="1.0" xmlns="http://www.w3.org/2000/svg"
 width="666.000000pt" height="666.000000pt" viewBox="0 0 666.000000 666.000000"
 preserveAspectRatio="xMidYMid meet">

<g transform="translate(0.000000,666.000000) scale(0.100000,-0.100000)"
fill="#85000C" stroke="none" >
<path d="M3145 6654 c-408 -31 -701 -95 -1034 -226 -441 -173 -820 -426 -1162
-774 -519 -531 -833 -1188 -926 -1938 -20 -163 -23 -566 -5 -721 86 -750 374
-1382 880 -1932 248 -270 597 -531 947 -706 831 -415 1830 -460 2690 -120 440
174 811 417 1141 747 279 280 471 551 644 908 238 494 343 988 327 1538 -15
496 -121 924 -337 1365 -218 444 -518 821 -896 1125 -498 400 -1057 635 -1704
716 -114 14 -468 26 -565 18z m1320 -1419 c594 -246 1086 -449 1093 -452 8 -4
12 -30 12 -82 l0 -78 -532 -6 c-293 -4 -1279 -7 -2191 -7 l-1658 0 3 81 3 80
1080 459 c594 252 1087 457 1095 455 8 -1 501 -204 1095 -450z m805 -772 c0
-21 3 -68 7 -105 l6 -68 -1912 0 -1911 0 0 98 c0 54 3 102 7 105 3 4 861 7
1905 7 l1898 0 0 -37z m-3030 -420 l0 -97 -41 -42 -42 -43 42 -738 c23 -406
41 -744 41 -750 0 -10 -69 -13 -309 -13 -171 0 -312 4 -315 8 -3 5 15 343 39
753 l44 744 -44 45 -45 46 0 85 c0 47 3 88 6 91 3 3 144 7 315 7 l309 2 0 -98z
m954 60 c3 -21 6 -63 6 -93 0 -51 -3 -57 -44 -100 l-45 -45 43 -745 c23 -410
41 -748 39 -752 -2 -5 -143 -8 -314 -8 l-309 0 0 38 c0 20 18 357 41 749 l42
711 -47 55 -46 54 0 80 c0 44 3 82 6 85 3 3 144 7 313 7 l308 2 7 -38z m956
-55 l0 -92 -42 -49 -42 -50 38 -671 c20 -369 40 -706 43 -748 l6 -78 -317 0
-316 0 0 23 c0 12 20 351 44 752 l44 730 -44 45 -44 46 0 86 0 87 28 4 c15 2
156 5 315 6 l287 1 0 -92z m952 0 l5 -93 -44 -46 -44 -46 40 -714 c23 -393 41
-731 41 -751 l0 -38 -309 0 c-171 0 -312 3 -314 8 -3 4 15 342 40 751 l44 744
-46 47 -45 46 0 85 c0 47 3 88 6 91 3 3 144 7 313 7 l309 2 4 -93z m183 -1933
l0 -100 -1912 -3 -1913 -2 0 105 0 105 1913 -2 1912 -3 0 -100z m115 -330 l0
-105 -2030 0 -2030 0 0 105 0 105 2030 0 2030 0 0 -105z m168 -327 l-3 -103
-2200 0 -2200 0 -3 103 -3 102 2206 0 2206 0 -3 -102z"/>
</g>
</svg>
